<mxfile host="app.diagrams.net" modified="2023-12-01T12:49:44.004Z" agent="Mozilla/5.0 (Windows NT 10.0; Win64; x64) AppleWebKit/537.36 (KHTML, like Gecko) Chrome/119.0.0.0 Safari/537.36" etag="C5rw2wuuSNO3mKYGyAe-" version="22.1.5" type="github">
  <diagram name="Seite-1" id="a7icOzzaM9Kc_C8IyMI1">
    <mxGraphModel dx="1221" dy="608" grid="1" gridSize="10" guides="1" tooltips="1" connect="1" arrows="1" fold="1" page="1" pageScale="1" pageWidth="1654" pageHeight="1169" math="0" shadow="0">
      <root>
        <mxCell id="0" />
        <mxCell id="1" parent="0" />
        <mxCell id="w2Cbn2tTVyVY0onJuo3W-1" value="Jira Zeitleiste&lt;br&gt;&lt;font style=&quot;font-size: 11px;&quot;&gt;(Ãœbersicht)&lt;/font&gt;" style="rounded=0;whiteSpace=wrap;html=1;verticalAlign=top;fontSize=16;" vertex="1" parent="1">
          <mxGeometry x="337" y="23" width="200" height="340" as="geometry" />
        </mxCell>
        <mxCell id="w2Cbn2tTVyVY0onJuo3W-2" value="&lt;font style=&quot;font-size: 18px;&quot;&gt;Epics&lt;/font&gt;" style="rounded=0;whiteSpace=wrap;html=1;fillColor=#e1d5e7;strokeColor=#9673a6;" vertex="1" parent="1">
          <mxGeometry x="377" y="83" width="120" height="60" as="geometry" />
        </mxCell>
        <mxCell id="w2Cbn2tTVyVY0onJuo3W-3" value="&lt;font style=&quot;font-size: 14px;&quot;&gt;Storys&lt;/font&gt;" style="rounded=0;whiteSpace=wrap;html=1;fillColor=#d5e8d4;strokeColor=#82b366;" vertex="1" parent="1">
          <mxGeometry x="377" y="173" width="120" height="60" as="geometry" />
        </mxCell>
        <mxCell id="w2Cbn2tTVyVY0onJuo3W-4" value="Task" style="rounded=0;whiteSpace=wrap;html=1;fillColor=#dae8fc;strokeColor=#6c8ebf;fontSize=11;" vertex="1" parent="1">
          <mxGeometry x="377" y="263" width="120" height="60" as="geometry" />
        </mxCell>
        <mxCell id="w2Cbn2tTVyVY0onJuo3W-7" value="" style="endArrow=classic;html=1;rounded=0;exitX=0.5;exitY=0;exitDx=0;exitDy=0;entryX=0.5;entryY=1;entryDx=0;entryDy=0;" edge="1" parent="1" source="w2Cbn2tTVyVY0onJuo3W-4" target="w2Cbn2tTVyVY0onJuo3W-3">
          <mxGeometry width="50" height="50" relative="1" as="geometry">
            <mxPoint x="677" y="303" as="sourcePoint" />
            <mxPoint x="727" y="253" as="targetPoint" />
          </mxGeometry>
        </mxCell>
        <mxCell id="w2Cbn2tTVyVY0onJuo3W-8" value="" style="endArrow=classic;html=1;rounded=0;exitX=0.5;exitY=0;exitDx=0;exitDy=0;" edge="1" parent="1" source="w2Cbn2tTVyVY0onJuo3W-3" target="w2Cbn2tTVyVY0onJuo3W-2">
          <mxGeometry width="50" height="50" relative="1" as="geometry">
            <mxPoint x="447" y="273" as="sourcePoint" />
            <mxPoint x="447" y="243" as="targetPoint" />
          </mxGeometry>
        </mxCell>
        <mxCell id="w2Cbn2tTVyVY0onJuo3W-9" value="Jira Backlog&lt;font style=&quot;font-size: 11px;&quot;&gt;&lt;br&gt;(Ziele/ Meilensteine)&lt;/font&gt;" style="rounded=0;whiteSpace=wrap;html=1;verticalAlign=top;fontSize=16;" vertex="1" parent="1">
          <mxGeometry x="617" y="23" width="200" height="340" as="geometry" />
        </mxCell>
        <mxCell id="w2Cbn2tTVyVY0onJuo3W-10" value="Sprints" style="rounded=0;whiteSpace=wrap;html=1;fillColor=#f8cecc;strokeColor=#b85450;" vertex="1" parent="1">
          <mxGeometry x="657" y="173" width="120" height="60" as="geometry" />
        </mxCell>
        <mxCell id="w2Cbn2tTVyVY0onJuo3W-11" value="" style="endArrow=classic;startArrow=classic;html=1;rounded=0;entryX=0;entryY=0.5;entryDx=0;entryDy=0;exitX=1;exitY=0.5;exitDx=0;exitDy=0;" edge="1" parent="1" source="w2Cbn2tTVyVY0onJuo3W-3" target="w2Cbn2tTVyVY0onJuo3W-10">
          <mxGeometry width="50" height="50" relative="1" as="geometry">
            <mxPoint x="677" y="303" as="sourcePoint" />
            <mxPoint x="727" y="253" as="targetPoint" />
          </mxGeometry>
        </mxCell>
        <mxCell id="w2Cbn2tTVyVY0onJuo3W-12" value="Jira Board&lt;br&gt;&lt;font style=&quot;font-size: 11px;&quot;&gt;(Aufgaben Status)&lt;/font&gt;" style="rounded=0;whiteSpace=wrap;html=1;verticalAlign=top;fontSize=16;" vertex="1" parent="1">
          <mxGeometry x="57" y="23" width="200" height="340" as="geometry" />
        </mxCell>
        <mxCell id="w2Cbn2tTVyVY0onJuo3W-13" value="Aufgaben" style="rounded=0;whiteSpace=wrap;html=1;fillColor=#ffe6cc;strokeColor=#d79b00;" vertex="1" parent="1">
          <mxGeometry x="97" y="83" width="120" height="60" as="geometry" />
        </mxCell>
        <mxCell id="w2Cbn2tTVyVY0onJuo3W-14" value="In Arbeit" style="rounded=0;whiteSpace=wrap;html=1;fillColor=#ffe6cc;strokeColor=#d79b00;" vertex="1" parent="1">
          <mxGeometry x="97" y="173" width="120" height="60" as="geometry" />
        </mxCell>
        <mxCell id="w2Cbn2tTVyVY0onJuo3W-15" value="Fertig" style="rounded=0;whiteSpace=wrap;html=1;fillColor=#ffe6cc;strokeColor=#d79b00;" vertex="1" parent="1">
          <mxGeometry x="97" y="263" width="120" height="60" as="geometry" />
        </mxCell>
        <mxCell id="w2Cbn2tTVyVY0onJuo3W-19" value="" style="endArrow=classic;startArrow=classic;html=1;rounded=0;entryX=0;entryY=0.5;entryDx=0;entryDy=0;exitX=1.005;exitY=0.529;exitDx=0;exitDy=0;exitPerimeter=0;" edge="1" parent="1" source="w2Cbn2tTVyVY0onJuo3W-12" target="w2Cbn2tTVyVY0onJuo3W-3">
          <mxGeometry width="50" height="50" relative="1" as="geometry">
            <mxPoint x="517" y="303" as="sourcePoint" />
            <mxPoint x="567" y="253" as="targetPoint" />
          </mxGeometry>
        </mxCell>
      </root>
    </mxGraphModel>
  </diagram>
</mxfile>
